<svg height="512" viewBox="0 0 25 24" width="512" xmlns="http://www.w3.org/2000/svg"><mask id="a"><path d="M0 0h24v24H0z" fill="#fff" transform="translate(.316)"/></mask><g fill-rule="evenodd" mask="url(#a)"><path d="M12.316.25C5.826.25.566 5.51.566 12s5.26 11.75 11.75 11.75 11.75-5.26 11.75-11.75S18.806.25 12.316.25z" fill="#2196f3"/><path d="M12.316.25v23.5C5.826 23.75.566 18.49.566 12S5.826.25 12.316.25z" fill="#1e81d0"/><path d="M9.566 6a2.75 2.75 0 115.5 0 2.75 2.75 0 01-5.5 0zm-1 6a2.75 2.75 0 012.75-2.75h2a2.75 2.75 0 012.75 2.75v2.956a1.75 1.75 0 01-1.5 1.732V19a1.75 1.75 0 01-1.75 1.75h-1a1.75 1.75 0 01-1.75-1.75v-2.312a1.75 1.75 0 01-1.5-1.732z" fill="#fafafa"/><path d="M12.316 9.25v11.5h-.5a1.75 1.75 0 01-1.75-1.75v-2.312a1.75 1.75 0 01-1.5-1.732V12a2.75 2.75 0 012.75-2.75zm0-6v5.5a2.75 2.75 0 010-5.5z" fill="#e5e6e8"/></g></svg>